<?xml version="1.0" encoding="UTF-8"?><svg id="Laag_1" xmlns="http://www.w3.org/2000/svg" viewBox="0 0 500 215.5"><defs><style>.cls-1{fill:#fff;}.cls-2{fill:none;stroke:#000;stroke-miterlimit:10;stroke-width:13px;}</style></defs><rect class="cls-1" width="500" height="215.5"/><g><path d="M250,61.3c-25.7,0-46.5,20.8-46.5,46.5s20.8,46.5,46.5,46.5,46.5-20.8,46.5-46.5-20.8-46.5-46.5-46.5Zm0,78.1c-17.5,0-31.7-14.2-31.7-31.7s14.2-31.7,31.7-31.7,31.7,14.2,31.7,31.7-14.2,31.7-31.7,31.7Z"/><circle cx="250" cy="106.6" r="12.5"/></g><path class="cls-2" d="M369.7,107.2s-56.4,64.2-119.7,64.2-119.8-64.2-119.8-64.2c0,0,56.4-64.2,119.8-64.2s119.7,64.2,119.7,64.2Z"/></svg>